<?xml version="1.0" encoding="UTF-8"?>
<!-- Generator: Adobe Illustrator 27.0.1, SVG Export Plug-In . SVG Version: 6.00 Build 0)  -->
<svg xmlns="http://www.w3.org/2000/svg" xmlns:xlink="http://www.w3.org/1999/xlink" version="1.1" id="Layer_1" x="0px" y="0px" viewBox="0 0 1268.8 764.2" style="enable-background:new 0 0 1268.8 764.2;" xml:space="preserve">
<style type="text/css">
	.st0{clip-path:url(#SVGID_00000000204376548732415500000008098288298711827110_);}
	.st1{clip-path:url(#SVGID_00000027579601555318960940000007158596906424809901_);fill:#D21242;}
	.st2{clip-path:url(#SVGID_00000027579601555318960940000007158596906424809901_);fill:#AEB0B2;}
	.st3{clip-path:url(#SVGID_00000027579601555318960940000007158596906424809901_);fill:#002D62;}
	.st4{clip-path:url(#SVGID_00000027579601555318960940000007158596906424809901_);fill:#FFFFFF;}
</style>
<g>
	<defs>
		<rect id="SVGID_1_" width="1268.8" height="764.2"></rect>
	</defs>
	<clipPath id="SVGID_00000041993591987095355160000004163885860288635815_">
		<use xlink:href="#SVGID_1_" style="overflow:visible;"></use>
	</clipPath>
	<g style="clip-path:url(#SVGID_00000041993591987095355160000004163885860288635815_);">
		<defs>
			<rect id="SVGID_00000083059798366641225920000008557299696188605079_" width="1268.8" height="764.2"></rect>
		</defs>
		<clipPath id="SVGID_00000022546490601481155710000005194243826812531871_">
			<use xlink:href="#SVGID_00000083059798366641225920000008557299696188605079_" style="overflow:visible;"></use>
		</clipPath>
		<path style="clip-path:url(#SVGID_00000022546490601481155710000005194243826812531871_);fill:#D21242;" d="M101.9,188.4H63.1    l-11.4,31.1H37.3l38.7-101.7h14.1l37,101.7h-14.3L101.9,188.4 M97.8,177.1L83,134.7l-15.6,42.3H97.8z"></path>
		<polyline style="clip-path:url(#SVGID_00000022546490601481155710000005194243826812531871_);fill:#D21242;" points="290.6,117.9     290.6,219.5 277.2,219.5 279.1,134.3 247,219.5 236.5,219.5 205,135.6 206.4,219.5 193.1,219.5 193.1,117.9 210.6,117.9     241.8,201.3 273.2,117.9 290.6,117.9   "></polyline>
		<polyline style="clip-path:url(#SVGID_00000022546490601481155710000005194243826812531871_);fill:#D21242;" points="385.1,173.2     385.1,207.7 443.9,207.7 443.9,219.5 372,219.5 372,117.9 442.1,117.9 442.1,129.8 385.1,129.8 385.1,161.2 434.6,161.2     434.6,173.2 385.1,173.2   "></polyline>
		<path style="clip-path:url(#SVGID_00000022546490601481155710000005194243826812531871_);fill:#D21242;" d="M532.7,176.3v43.2    h-13.2V117.9h37.7c14.1,0.1,22.5,0.1,30.4,6.2c7.5,5.6,10.7,14.1,10.7,23.5c0,23.8-19.2,27.1-24,27.9l28.5,44.1h-16.1l-27.6-43.2    H532.7 M532.7,165.1h26.9c4.3,0,8.4,0,12.4-1c9.4-2.3,12.7-9.1,12.7-16.4c0-2.6-0.3-9.5-6-14.3c-5.3-4.5-12-4.3-19.7-4.3h-26.2    V165.1z"></path>
		
			<rect x="674.4" y="117.9" style="clip-path:url(#SVGID_00000022546490601481155710000005194243826812531871_);fill:#D21242;" width="13.7" height="101.7"></rect>
		<path style="clip-path:url(#SVGID_00000022546490601481155710000005194243826812531871_);fill:#D21242;" d="M862,182.7    c-4.3,19.3-20.6,39.5-50.1,39.5c-33.6,0-49.7-25.2-49.7-53.4c0-28.8,16.6-53.4,51.6-53.4c35.1,0,43.8,24.3,46.2,31.1l-13.7,2.9    c-1.3-3.7-2.3-7.1-6-11.4c-4.9-6-13.8-11.8-26.6-11.8c-10.8,0-21.3,4.3-27.9,12.8c-6.5,8.1-8.5,18.7-8.5,29.1    c0,25.2,12.8,42.9,36.3,42.9c15.1,0,30.5-8.5,33.7-30L862,182.7"></path>
		<path style="clip-path:url(#SVGID_00000022546490601481155710000005194243826812531871_);fill:#D21242;" d="M980.7,188.4H942    l-11.4,31.1h-14.4l38.7-101.7H969l37,101.7h-14.3L980.7,188.4 M976.7,177.1l-14.8-42.3l-15.6,42.3H976.7z"></path>
		<path style="clip-path:url(#SVGID_00000022546490601481155710000005194243826812531871_);fill:#D21242;" d="M1184.3,172.6    c-14.7-3-36.3-7.9-36.3-28.9c0-10.1,5.5-16.4,9.4-19.7c9.1-7.8,20.2-8.6,27.2-8.6c7.2,0,18.1,0.7,27.4,7.5    c10.1,7.3,12.1,17.7,13.1,23.9l-13.7,0.9c-0.1-3.2-0.6-11.2-8.2-16.8c-5.2-3.7-11.7-4.9-18.1-4.9c-12.2,0-23,5-23,16    c0,11.2,11.2,13.8,20,15.8l11.2,2.9c7.8,1.9,12,2.7,16,4.5c15.3,6.3,17.6,18.6,17.6,25.3c0,9.5-3.9,18.4-13,24.6    c-9.8,6.6-21.5,7.2-27.7,7.2c-9.2,0-40.8-1.4-43.1-35l14.5-1.9c0.1,3.9,0.6,12.8,8.2,19.6c5.8,5,13.4,6.8,20.9,6.8    c14.4,0,25.3-7.1,25.3-20.3c0-11.8-9.4-15-19.3-17L1184.3,172.6"></path>
		<path style="clip-path:url(#SVGID_00000022546490601481155710000005194243826812531871_);fill:#AEB0B2;" d="M226.2,363.2    c-4.4-5.6-9-11.4-20.6-17.4c-19.8-9.6-45.4-10.4-52.8-10.4c-8.5,0-15.7,1.2-20.7,3.5c-7.1,3.2-7.9,7.7-7.9,10.8    c0,3.5,1.3,6.1,4.2,8.3c5.3-8.3,18.8-10.9,31.3-10.9c15.1,0,37.8,2.5,55,10.9c13,6.7,18.1,13.4,22.7,19.3l58.8-49.1    c-2.8-2.9-5.6-5.8-8.6-8.8l-57.8,48.3L226.2,363.2"></path>
		<path style="clip-path:url(#SVGID_00000022546490601481155710000005194243826812531871_);fill:#AEB0B2;" d="M52.2,426.2    c-3.1-2.4-6-5-8.7-7.7c17.2,27.9,49.8,37.9,69.2,42.9c12.2,2.9,66.8,12.6,77.3,16.4c1.7,0.6,3.1,1.2,4.5,1.8c0,0,0,0,0-0.1    c0-6.2-4.5-10.9-13-13.7l-0.1,0c-6.3-2.3-31.9-7.3-50.6-10.9c-11.6-2.3-21.7-4.2-26.2-5.3C89,445.4,69,439.1,52.2,426.2"></path>
		<path style="clip-path:url(#SVGID_00000022546490601481155710000005194243826812531871_);fill:#AEB0B2;" d="M296.4,465.3    c0,1.2,0.1,2.5,0.1,3.7c0,34.3-15.2,57.2-27.9,70.3c-25.8,26.4-65.2,39.7-117,39.7c-26.4,0-49.4-3-70.3-9    c-37.2-10.6-59.1-29.2-73.5-44.7l-0.6,0.4c13.4,16.4,35.3,42.8,82.3,56.3c23.1,6.7,46.6,8.8,68.9,8.8c16.4,0,76,0,113.4-38.2    c13.4-13.9,26.5-35.7,26.5-66.8C298.4,478.3,297.7,471.5,296.4,465.3"></path>
		<path style="clip-path:url(#SVGID_00000022546490601481155710000005194243826812531871_);fill:#002D62;" d="M72.2,462.7    c8.4,13,15.5,24,41.2,32.3c12.2,4.2,27.3,6.7,41.6,6.7c7.6,0,44.5-0.8,44.5-22.3c0-2.1,0-13-16.4-18.5    c-10.5-3.8-65.1-13.4-77.3-16.4c-27.3-7.1-80.6-23.9-80.6-86.5c0-13,2.9-26.5,8.4-38.2c19.3-43.7,69.3-60.9,122.7-60.9    c34,0,65.1,6.7,89.5,18.9c22.3,10.9,33.2,22.7,43.7,33.6l-58.8,49.1c-4.6-5.9-9.7-12.6-22.7-19.3c-17.2-8.4-39.9-10.9-55-10.9    c-16,0-33.6,4.2-33.6,19.3c0,14.3,15.1,18.1,40.7,22.7c65.9,11.3,131.5,23.1,131.5,96.6c0,31.1-13,52.9-26.5,66.8    C227.6,574,168,574,151.6,574c-22.3,0-45.8-2.1-68.9-8.8c-47-13.4-68.9-39.9-82.3-56.3L72.2,462.7"></path>
		<path style="clip-path:url(#SVGID_00000022546490601481155710000005194243826812531871_);fill:#AEB0B2;" d="M476.2,338.8    L476.2,338.8l-48.7,0v12h53.6c4.4,0.2,12.2,0.6,18.5,4.4C497.8,341.2,486.6,339.3,476.2,338.8"></path>
		<path style="clip-path:url(#SVGID_00000022546490601481155710000005194243826812531871_);fill:#AEB0B2;" d="M478.6,451.4h-51.6v12    h56.5c5.1,0.2,15.7,0.8,23.7,6.5C504.5,454.8,490.8,452,478.6,451.4"></path>
		<path style="clip-path:url(#SVGID_00000022546490601481155710000005194243826812531871_);fill:#AEB0B2;" d="M567.1,413.3    c4.2,1.5,8.3,3.3,12.5,5.8c1.3-1.1,2.7-2.3,4-3.7c11.8-11.8,21-30.2,21-52.1c0-2.6-0.1-5.2-0.4-7.8c-2,17.7-9.7,34.2-21.9,46.4    C577.2,407.1,572.3,410.5,567.1,413.3"></path>
		<path style="clip-path:url(#SVGID_00000022546490601481155710000005194243826812531871_);fill:#AEB0B2;" d="M589.8,547    c-23.3,23.8-55.2,24.9-78.5,25.8l-1,0H333.7v12h181.5c23.1-0.8,53.8-1.7,76-24.4c15.1-15.1,21.8-38.2,21.8-60.5    c0-2.3-0.1-4.7-0.3-7.2C610.9,514.6,602.8,534,589.8,547"></path>
		<path style="clip-path:url(#SVGID_00000022546490601481155710000005194243826812531871_);fill:#002D62;" d="M328.8,271.2h175.6    c18.5,0.8,52.9,2.1,75.2,24c13.4,12.6,20.2,32.3,20.2,51.2c0,21.8-9.2,40.3-21,52.1c-8,8-15.5,11.3-25.2,16    c12.2,3.4,23.1,6.3,34.9,18.1c16.8,16.4,19.7,35.7,19.7,50.4c0,22.3-6.7,45.4-21.8,60.5c-22.3,22.7-52.9,23.5-76,24.4H328.8V271.2     M422.1,446.4v57.5h58.8c8.4-0.4,17.2-0.8,24.4-8.8c4.6-4.6,7.6-11.8,7.6-19.3c0-27.7-25.2-29-34-29.4H422.1z M422.5,333.8v50.4    h51.7c8.8,0,30.7,0,30.7-24.8c0-24.4-20.2-25.2-28.6-25.6H422.5z"></path>
		<path style="clip-path:url(#SVGID_00000022546490601481155710000005194243826812531871_);fill:#AEB0B2;" d="M747.2,357.5h35.3    c9.9,0.4,21.3,0.9,31.6,6.4c-11.5-14.7-27.1-15.5-41.2-16.1l-0.3,0h-30.2v149.2h4.7V357.5"></path>
		<path style="clip-path:url(#SVGID_00000022546490601481155710000005194243826812531871_);fill:#AEB0B2;" d="M928.6,369.4    c3.9,15.6,5.9,32.7,5.9,51.1c0,74.8-31.6,128.1-86.6,146.3c-24.7,8.2-52,8.2-81,8.2H653.1v9.7h123.5c29,0,55.4,0,79.4-8    c59.6-19.7,83.2-79,83.2-141.6C939.2,412.7,936.1,390,928.6,369.4"></path>
		<path style="clip-path:url(#SVGID_00000022546490601481155710000005194243826812531871_);fill:#002D62;" d="M643.4,273.5h100.8    c66.4,0.8,109.2,1.3,144.1,34c30.7,28.6,41.2,71,41.2,113c0,62.6-23.5,121.8-83.2,141.6c-23.9,8-50.4,8-79.4,8H643.4V273.5     M737.5,342.9v159.2h35.7c13.4-0.8,26.5-1.3,39.5-13.9c14.3-13.4,22.3-38.6,22.3-66.4c0-17.2-2.9-31.5-7.6-43.7    c-12.6-33.6-36.1-34.4-54.6-35.3H737.5z"></path>
		<path style="clip-path:url(#SVGID_00000022546490601481155710000005194243826812531871_);fill:#AEB0B2;" d="M1054.1,429.5    c0-11.8,0-45.4,22.3-66.8c6.3-6.3,19.3-16,39.9-16c17.1,0,29.5,5.9,38.7,14.1c-8.7-12.9-22.4-24.9-45.8-24.9    c-19,0-31,9.1-36.4,14.5l-0.1,0.1c-20.7,19.9-20.7,51.4-20.7,63.2c0,7.3,0.5,17.4,2.6,28C1054.2,437.6,1054.1,433.6,1054.1,429.5"></path>
		<path style="clip-path:url(#SVGID_00000022546490601481155710000005194243826812531871_);fill:#AEB0B2;" d="M1248.6,501.3    c-6.2,11.1-13.1,22-24.7,33.5c-29.5,29.1-71.7,45.2-118.6,45.2c-46.5,0-85.7-15.2-114-44.2c25,32.5,64.9,55,121.1,55    c42.4,0,84.8-13.9,115.1-43.7c14.3-14.3,21.4-27.7,29-42L1248.6,501.3"></path>
		<path style="clip-path:url(#SVGID_00000022546490601481155710000005194243826812531871_);fill:#AEB0B2;" d="M1172.4,384.6    c2.1,4,3.7,7.9,5.2,11.3l78.6-39.1c-2-3.7-4-7.3-6.1-10.8L1172.4,384.6"></path>
		<path style="clip-path:url(#SVGID_00000022546490601481155710000005194243826812531871_);fill:#002D62;" d="M1249.4,489.3    c-7.6,14.3-14.7,27.7-29,42c-30.2,29.8-72.7,43.7-115.1,43.7c-105.8,0-153.7-79.8-153.7-155.8c0-79.8,53.4-160.9,153.7-160.9    c45,0,87.8,16,118.9,47.9c12.6,13,18.5,23.1,24.8,34.9l-78.6,39.1c-7.5-17.6-21.8-49.1-61.3-49.1c-20.6,0-33.6,9.7-39.9,16    c-22.3,21.4-22.3,55-22.3,66.8c0,44.1,16.4,85.7,62.6,85.7c43.7,0,56.7-38.6,60.1-48.7L1249.4,489.3"></path>
		<polyline style="clip-path:url(#SVGID_00000022546490601481155710000005194243826812531871_);fill:#002D62;" points="996,71.3     1028,77.5 1040.5,51.9 1047.3,81.5 1086.8,85.5 1048,104.4 1058,143.6 1057.9,143.4 1076,175.5 1059.1,109.5 1121,79.3 1055,72.8     1043.7,23.5 1022.7,66.9 972.2,57.1 973.9,59.3 996,71.3   "></polyline>
		<path style="clip-path:url(#SVGID_00000022546490601481155710000005194243826812531871_);fill:#002D62;" d="M984.5,24.1    c0,0-344.8-83.4-777.3,60.1c0,0,432.7-118.1,771.3-47L984.5,24.1"></path>
		
			<rect y="613.1" style="clip-path:url(#SVGID_00000022546490601481155710000005194243826812531871_);fill:#D21242;" width="1250.3" height="151.1"></rect>
		<path style="clip-path:url(#SVGID_00000022546490601481155710000005194243826812531871_);fill:#002D62;" d="M1252.4,581.4    c-8.5,0-16.4-6.7-16.4-16.4c0-9.5,7.5-16.5,16.4-16.5c9.5,0,16.5,7.5,16.5,16.5C1268.8,574.1,1261.6,581.4,1252.4,581.4     M1252.5,550c-8.5,0-15,6.7-15,15c0,8.3,6.7,14.9,15,14.9c8.4,0,14.9-6.6,14.9-14.9C1267.4,556.8,1261,550,1252.5,550z     M1252.2,554.5c2.1,0,3.6,0,4.8,0.5c2.2,0.8,3.3,2.8,3.3,4.8c0,2.6-1.6,4.2-4.2,4.9c1.7,0.7,2.5,1.5,3,4.3    c0.5,3.1,0.7,4.3,1.6,6.1h-4.2c-0.2-0.3-0.5-1.1-0.8-2.9c-0.1-0.5-0.4-2.7-0.5-3.2c-0.6-3-2-3.2-4.7-3.2h-1.3v9.3h-3.7v-20.7    H1252.2z M1249.2,563h3c1.5,0,4.4,0,4.4-2.9c0-0.8-0.3-1.9-1.5-2.4c-0.7-0.3-1.2-0.3-3.6-0.3h-2.4V563z"></path>
		<polyline style="clip-path:url(#SVGID_00000022546490601481155710000005194243826812531871_);fill:#FFFFFF;" points="258.7,694.9     258.7,744.7 244.6,744.7 244.6,638.6 312.5,638.6 312.5,651.2 258.7,651.2 258.7,682.6 308.8,682.6 308.8,694.9 258.7,694.9   "></polyline>
		<polyline style="clip-path:url(#SVGID_00000022546490601481155710000005194243826812531871_);fill:#FFFFFF;" points="371.6,732.1     422.9,732.1 422.9,744.7 357.5,744.7 357.5,638.6 371.6,638.6 371.6,732.1   "></polyline>
		<path style="clip-path:url(#SVGID_00000022546490601481155710000005194243826812531871_);fill:#FFFFFF;" d="M506.8,747.4    c-32.2,0-52.9-22.6-52.9-55.6c0-39.3,27.1-55.6,53.4-55.6c29.7,0,53.2,20.1,53.2,54.6C560.5,722.5,541.9,747.4,506.8,747.4     M507.2,647.5c-26.7,0-38.1,20.5-38.1,44.4c0,22.2,11,44.4,38.2,44.4c28.5,0,37.9-23.7,37.8-45.4    C545,665.2,531.7,647.5,507.2,647.5z"></path>
		<path style="clip-path:url(#SVGID_00000022546490601481155710000005194243826812531871_);fill:#FFFFFF;" d="M626.6,699.7v45h-13.8    V638.8h39.3c14.7,0.1,23.4,0.1,31.6,6.4c7.8,5.9,11.1,14.7,11.1,24.4c0,24.7-19.9,28.2-25,29.1l29.7,45.9h-16.8l-28.8-45H626.6     M626.6,688h28c4.5,0,8.7,0,12.9-1.1c9.8-2.4,13.2-9.4,13.2-17.1c0-2.7-0.3-9.9-6.3-14.8c-5.5-4.6-12.4-4.5-20.5-4.5h-27.3V688z"></path>
		
			<rect x="747.5" y="638.8" style="clip-path:url(#SVGID_00000022546490601481155710000005194243826812531871_);fill:#FFFFFF;" width="14.2" height="105.9"></rect>
		<path style="clip-path:url(#SVGID_00000022546490601481155710000005194243826812531871_);fill:#FFFFFF;" d="M819.8,638.8H853    c15,0,28.3,0,40.6,13c12.8,13.6,13.2,32.4,13.2,39.9c0,7.4-0.3,28-14.8,41.7c-12.3,11.2-26.7,11.2-35.7,11.2h-36.4V638.8     M834.2,651.2v81.3H853c9.3-0.2,16.3-0.3,23.4-4.3c7-3.9,16-13.5,16-36.3c0-17.4-5.1-33.6-22-38.8c-5.8-1.8-12-1.8-19.5-1.8H834.2    z"></path>
		<path style="clip-path:url(#SVGID_00000022546490601481155710000005194243826812531871_);fill:#FFFFFF;" d="M1010.1,712.3h-40.3    l-11.8,32.4h-15l40.3-105.9h14.7l38.5,105.9h-14.8L1010.1,712.3 M1005.9,700.4l-15.4-44.1l-16.2,44.1H1005.9z"></path>
	</g>
</g>
</svg>
